<?xml version="1.0" encoding="UTF-8"?>
<svg height="256" width="256" xmlns="http://www.w3.org/2000/svg" xmlns:xlink="http://www.w3.org/1999/xlink">
 <linearGradient id="a" gradientUnits="userSpaceOnUse" x1="28.5" x2="156.5" y1="98.36" y2="98.36">
  <stop offset="0" stop-color="#969696"/>
  <stop offset=".306135" stop-color="#767676"/>
  <stop offset=".51" stop-color="#3a3a3a"/>
  <stop offset=".52"/>
  <stop offset=".53"/>
  <stop offset=".54" stop-color="#262626"/>
  <stop offset=".724869" stop-color="#4f4f4f"/>
  <stop offset=".756131" stop-color="#525252"/>
  <stop offset=".858174" stop-color="#444"/>
  <stop offset=".934706" stop-color="#2f2f2f"/>
  <stop offset="1" stop-color="#1e1e1e"/>
 </linearGradient>
 <linearGradient id="b" gradientUnits="userSpaceOnUse" x1="4.25" x2="4.25" y1=".23" y2="10.74">
  <stop offset="0" stop-color="#fff"/>
  <stop offset=".23" stop-color="#fafafa"/>
  <stop offset=".669643" stop-color="#dfdfdf"/>
  <stop offset="1" stop-color="#d2d2d2"/>
 </linearGradient>
 <linearGradient id="c" gradientTransform="matrix(.61684 0 0 .38274 274.81 52.75)" gradientUnits="userSpaceOnUse" x1="-198.41" x2="-198.41" y1="36.59" y2="-36.78">
  <stop offset="0" stop-color="#b9b9b9"/>
  <stop offset="1" stop-color="#fff"/>
 </linearGradient>
 <filter id="d">
  <feGaussianBlur stdDeviation=".07136633"/>
 </filter>
 <metadata/>
 <g transform="matrix(.96875 0 0 .96875 -14.39 -7)">
  <path d="m156 98.3622a63.5 64 0 1 1 -127 0 63.5 64 0 1 1 127 0z" fill="url(#a)" stroke="#222" stroke-linecap="round" stroke-linejoin="round" stroke-width="2.024" transform="matrix(0 1.98426 -1.96875 0 340.63 -44.18)"/>
  <path d="m2.71875.34375c-.03033.00075-.06279.0099-.09375.03125s-.05635.06044-.0625.09375c-.01229.06663.00272.09851.03125.15625.13146.23688.26142.42168.3125.5625.08775.19527.08651.37674.0625.5l-.15625.75c-.78888.18269-1.55032.36732-2.3125.625-.14835.04745-.26137.09522-.375.15625-.01035-.0017-.0209-.0017-.03125 0-.03993.02378-.0418.0588-.0625.09375-.01035.01748-.02838.03784-.03125.0625s.00883.06493.03125.09375c.06656.09171.15603.12961.28125.1875s.26904.11758.375.15625c.53008.19345 1.21174.34984 1.75.40625-.14494.65389-.28498 1.30029-.5 1.9375-.05235.15513-.11908.31672-.1875.46875-.19652.43668-.44577.83533-.6875 1.21875-.25534.35802-.4705.70701-.75 1.03125-.05214.05521-.13629.1025-.1875.15625-.0256.02688-.04386.06991-.0625.09375-.00932.01192-.02327.01678-.03125.03125s-.00305.02206 0 .0625c-.0017.01035-.0017.0209 0 .03125.00785.0127.01855.0234.03125.03125.00785.0127.01855.0234.03125.03125.01035.0017.0209.0017.03125 0 .05583.0085.10204-.01436.15625-.03125s.09151-.03212.15625-.0625c.12949-.06076.29652-.12957.4375-.21875.20254-.12812.35196-.2584.46875-.34375.20581-.15041.6693-.58185.90625-.875.27225-.30979.56212-.64217.78125-1.0625.0042-.00806-.00417-.02312 0-.03125.01495-.02577.10152-.19141.125-.25.04697-.11718.07838-.23346.09375-.28125l.6875-2.09375 2.40625-.5625c-.05969.5049-.12665.99399-.1875 1.5-.04637.41713-.07804.5851-.125 1.03125-.0014.01333.00144.01739 0 .03125-.02665.1375-.10417.52377-.125.625-.15972.7762-.33132 1.48001-.6875 2.09375-.08522.11972-.1838.24561-.28125.34375-.09856-.04781-.23683-.11442-.4375-.125-.00347-.00043-.02161.00037-.03125 0-.01035-.0017-.0209-.0017-.03125 0-.00037.00014-.03103.03103-.03125.03125-.0127.00785-.0234.01855-.03125.03125-.01326.07097.01062.12584.03125.1875s.03745.1308.0625.1875c.18068.40898.39269.76146.59375 1.125.00785.0127.01855.0234.03125.03125.00785.0127.01855.0234.03125.03125.01035.0017.0209.0017.03125 0 .01035.0017.0209.0017.03125 0 .0127-.00785.0234-.01855.03125-.03125.3002-.28454.65272-.74266.90625-1.125.49866-.74796.92028-1.58412 1.21875-2.53125.0446-.14733.08094-.29646.125-.46875l.9375-3.59375c.03964-.15882.08547-.33534.09375-.46875.0017-.01035.0017-.0209 0-.03125-.0194-.04626-.06183-.07041-.09375-.09375s-.0534-.04236-.09375-.0625c-.0807-.04028-.1876-.08956-.28125-.125-.44968-.15146-.93842-.28773-1.46875-.40625-.05672-.02467-.09539-.03454-.15625-.03125s-.15091.01857-.21875.03125c-.13569.02535-.27542.07264-.375.09375l-1.25.28125c.0532-.16618.13956-.41112.0625-.71875-.10669-.34919-.38193-.55288-.6875-.65625-.26027-.08804-.51443-.1664-.78125-.25-.04321-.01354-.23959-.08294-.4375-.09375z" fill="url(#b)" stroke="#383838" stroke-linecap="round" stroke-miterlimit="2" stroke-width=".225" transform="matrix(21.5454 0 0 21.9472 58.35 16.03)"/>
  <path d="m154.583 43.9116-3.89328.07805c.7189.9793 2.05121 3.93954 1.87322 7.8541s-2.0246 10.7342-3.3646 13.5895l3.84638-.92369c.86694-1.70154 2.88651-7.77735 3.15625-12.3715.19709-3.35692-.96155-7.74678-1.61797-8.22642z" fill="url(#c)" fill-rule="evenodd" filter="url(#d)"/>
  <path d="m198.262 86.3135-55.941 13.4925-1.07905 3.55176 56.6513-13.5238.36878-3.5205z" fill="#b9b9b9" fill-rule="evenodd"/>
  <path d="m235.161 71.1689c-12.4851 52.0456-19.4581 83.3418-28.3171 108.05s-25.432 48.2688-36.9966 61.948l-.28803 5.47089c19.3435-22.4674 31.5848-41.2141 40.5659-66.2627s16.6097-58.9696 29.0896-110.994l-4.05375 1.78768z" fill="#b9b9b9" fill-rule="evenodd"/>
  <path d="m67.1081 90.6321-6.2484.00537c1.77188 3.91173 25.5964 13.2187 52.9508 15.816l.67023-3.09637c-20.7166-2.62256-35.4853-7.2789-47.3727-12.725z" fill="#b9b9b9" fill-rule="evenodd"/>
  <path d="m138.464 100.799c-13.0033 41.528-15.9825 70.2283-61.3986 105.436l-15.4859 11.542c19.2163-4.05638 48.2253-33.7119 60.0025-55.4011 5.0949-9.3829 18.4154-52.8045 20.6857-62.537l-3.80367.96024z" fill="#b9b9b9" fill-rule="evenodd"/>
 </g>
</svg>
